<?xml version="1.0" standalone="no"?><!DOCTYPE svg PUBLIC "-//W3C//DTD SVG 1.1//EN" "http://www.w3.org/Graphics/SVG/1.1/DTD/svg11.dtd"><svg t="1781484841622" class="icon" viewBox="0 0 1024 1024" version="1.1" xmlns="http://www.w3.org/2000/svg" p-id="1904" xmlns:xlink="http://www.w3.org/1999/xlink" width="200" height="200"><path d="M831.6 485.2c-35.8-24.1-80.2-23.4-117.6-7.8-30.4 12.5-64.6-4.7-70.1-37.4-20.2-119.9-50.6-270.2-122.3-295.9-24.9-8.6-52.2-1.6-73.2 13.2-23.4 16.4-43.6 42.8-61.5 71.6-21 35-73.2 31.2-89.6-6.2 0-0.8-0.8-0.8-0.8-1.6-16.4-35.8-49.8-68.5-100.5-65.4-59.2 3.1-78.7 70.9-73.2 95.8 2.3 8.6 12.5 11.7 15.6 3.9 8.6-21.8 29.6-54.5 57.6-49.1 48.3 10.1 78.7 134.7 81.8 217.3 2.3 63.1 7 142.5 3.9 205.6-1.6 31.9 56.9 33.5 60 6.2 3.9-37.4 17.9-104.4 22.6-127.7 12.5-56.1 28-111.4 49.1-165.1 9.3-24.1 58.4-132.4 87.2-121.5 42.8 16.4 72.4 224.3 87.2 288.2 2.3 9.3 4.7 24.1 7.8 42.1 2.3 13.2 2.3 26.5 0 38.9-2.3 11.7-6.2 23.4-11.7 34.3-45.2 85.7-25.7 188.5-56.1 208.7-17.1 11.7-38.2 17.9-64.6 10.1-17.9-5.5 1.6 28 23.4 35.8 18.7 7 44.4 5.5 58.4-3.1 33.5-19.5 47.5-61.5 56.9-102.8 8.6-35.8 51.4-51.4 81-28.8 29.6 22.6 67 35.8 101.2 31.2 61.5-7.8 112.1-66.2 116.8-127.7 4.7-56.9-3.1-118.4-69.3-162.8zM809.8 690c-29.6 26.5-59.2 18.7-80.2 8.6-17.1-7.8-36.6-31.9-47.5-67-5.5-17.1-2.3-36.6 10.1-49.8 19.5-22.6 50.6-47.5 84.9-39.7 47.5 9.3 60 42.8 63.1 79.4 1.5 23.3-10.2 49.8-30.4 68.5z" p-id="1905"></path></svg>