<?xml version="1.0" standalone="no"?><!DOCTYPE svg PUBLIC "-//W3C//DTD SVG 1.1//EN" "http://www.w3.org/Graphics/SVG/1.1/DTD/svg11.dtd"><svg t="1781485137465" class="icon" viewBox="0 0 1024 1024" version="1.1" xmlns="http://www.w3.org/2000/svg" p-id="6868" xmlns:xlink="http://www.w3.org/1999/xlink" width="200" height="200"><path d="M934.3488 973.5168l-103.7824-41.9072-447.744-10.8288L97.28 982.8864 352.9472 1024l581.4016-50.4832z" opacity=".1" p-id="6869"></path><path d="M724.5568 892.9024l5.5808 57.5232 39.5008-0.1536 1.5616-52.864-46.6432-4.5056zM453.8624 892.9024l5.5808 57.5232 39.5008-0.1536 10.3168-52.864-55.3984-4.5056z" fill="#4F5253" p-id="6870"></path><path d="M463.8976 968.3712l7.5264-80.6656-75.3152 8.7296 4.48 75.8016 63.3088-3.8656z" fill="#858686" p-id="6871"></path><path d="M221.2864 661.376l26.4448-182.7584-58.9056-34.3296-49.0752 131.7632 81.536 85.3248z" fill="#734D60" p-id="6872"></path><path d="M139.7504 576.0512l89.0624-2.7136 8.832 52.992-17.28 56.448-80.6144-106.7264z" fill="#543042" p-id="6873"></path><path d="M517.5552 474.88l35.6864 116.2752-7.2704 45.7216-50.6368 44.16-39.7824-128.2048 12.1088-112.6144 49.8944 34.6624z" fill="#734D60" p-id="6874"></path><path d="M519.0144 535.6544l-23.68 145.3824 98.6624-39.2448-29.312-101.4528-19.1488-13.4144-26.5216 8.7296zM372.4288 500.992l49.7664-71.7824 57.7792 18.4064 15.36 233.4208-142.4128 16.2304-132.5568-14.4896 16.2048-200.3968 30.5152-24.192 14.7456-40.8576 90.5984 83.6608z" fill="#96637C" p-id="6875"></path><path d="M427.6992 474.752l91.3152 4.8384-8.6528-29.3376-83.6096-11.0592 0.9472 35.5584z" fill="#594165" p-id="6876"></path><path d="M828.3904 972.2368l2.176-74.3424-69.7344-10.1888 1.3312 84.5312h66.2272z" fill="#858686" p-id="6877"></path><path d="M830.5664 906.624l0.7168-37.12-202.1376-82.816-230.6048 65.92 1.7664 54.016h430.2592z" fill="#858686" p-id="6878"></path><path d="M810.9056 869.504l-397.3376-12.3904 220.3904-49.152 176.9472 61.5424z" fill="#C4C4C4" p-id="6879"></path><path d="M638.7712 849.7152l-236.16 71.8592 14.1056-27.5456 112.128-39.6032 109.9264-4.7104z" opacity=".1" p-id="6880"></path><path d="M638.7712 829.2608v20.4544l191.6416 53.1712 0.8704-33.3824-192.512-40.2432z" fill="#2B2B2B" opacity=".1" p-id="6881"></path><path d="M416.7168 894.0288l222.0544-44.3136 11.1616-25.9584-14.72-26.7008-211.4816 23.808-7.0144 73.1648z" fill="#CECECD" p-id="6882"></path><path d="M633.9584 807.9616l-210.2272 12.9024 13.0816-101.376 61.3888 15.3856 126.6432 31.8976 10.368 22.4-1.2544 18.7904z" fill="#9DA1A2" p-id="6883"></path><path d="M624.8448 766.7712l9.1136 41.1904 83.0464 9.1392 95.6928-23.3472 28.3648-74.2656-216.2176 47.2832z" fill="#C4C4C4" p-id="6884"></path><path d="M633.9584 807.9616l4.8128 41.7536 249.7024 27.2384-75.776-83.2-178.7392 14.208z" fill="#ECECEB" p-id="6885"></path><path d="M812.6976 793.7536l-33.6896 25.0112-50.048-18.3552 83.7376-6.656z" opacity=".1" p-id="6886"></path><path d="M768.0256 718.976l-51.0208 27.648 55.3984 27.648-4.3776-55.296z" fill="#9075A0" p-id="6887"></path><path d="M768.0256 718.976h10.9824v89.2416h-10.9824z" fill="#785D88" p-id="6888"></path><path d="M705.2544 817.1008l-38.2976 19.4816-31.744-17.8176 70.0416-1.664z" opacity=".1" p-id="6889"></path><path d="M666.9568 736.7936l-42.112 29.9776 46.4896 25.3184-4.3776-55.296z" fill="#9075A0" p-id="6890"></path><path d="M666.9568 736.7936h10.9824v89.2416h-10.9824z" fill="#785D88" p-id="6891"></path><path d="M607.104 792.5504l-38.5536 13.2352-43.5456-33.3312 82.0992 20.096z" opacity=".1" p-id="6892"></path><path d="M569.216 705.9968l-47.0016 34.9696 51.3792 20.3264-4.3776-55.296z" fill="#9075A0" p-id="6893"></path><path d="M569.216 705.9968h10.9824v89.2416h-10.9824z" fill="#785D88" p-id="6894"></path><path d="M498.2016 734.8736l-145.2544 57.1136v82.4832l35.8656 17.6384 50.5856-42.3936 58.8032-114.8416z" fill="#734D60" p-id="6895"></path><path d="M439.3984 849.7152l-86.4512 24.7552-10.2912 60.0576h31.8976l28.0576-12.9536 36.7872-71.8592z" fill="#543042" p-id="6896"></path><path d="M352.9472 874.4704l11.7248-68.4032-48.384-43.3408-97.5616-43.2384 27.9296 141.312 55.808 35.6352 50.4832-21.9648z" fill="#96637C" p-id="6897"></path><path d="M498.2016 734.8736l-133.5296 71.1936-145.9456-86.5792 155.8272-0.0768 123.648 15.4624z" fill="#543042" p-id="6898"></path><path d="M246.656 860.8l106.2912 13.6704-10.2912 60.0576-40.192 10.4448-39.7824-3.072-16.0256-81.1008z" fill="#734D60" p-id="6899"></path><path d="M340.3008 968.3712l50.7392 4.5824 72.8576-4.5824-61.2864-46.7968-59.9552 12.9536-2.3552 33.8432z" fill="#785D88" p-id="6900"></path><path d="M340.3008 968.3712h123.5968v17.408h-123.5968z" fill="#594165" p-id="6901"></path><path d="M342.656 934.528l23.5264 51.2768-55.5776 5.3248-55.5776-5.3248 7.6544-43.904 79.9744-7.3728z" fill="#9075A0" p-id="6902"></path><path d="M255.0272 985.8048h111.1296v17.408H255.0272z" fill="#594165" p-id="6903"></path><path d="M429.824 605.824l15.6672 75.52-158.6176 0.9984 13.9008-56.0128 31.2576-87.7824 40.3968-37.5552 35.0208 37.5552 22.3744 67.2768z" fill="#734D60" p-id="6904"></path><path d="M321.2544 453.7344l-108.4928 36.7104-23.936-46.1568 101.7344-29.8496 30.6944 39.296z" fill="#594165" p-id="6905"></path><path d="M290.56 414.4384l10.2144 211.8912 71.6544-125.3376-81.8688-86.5536zM372.4288 500.992l57.3952 104.832-3.072-166.6304-54.3232 61.7984zM378.5472 563.072l10.2656 18.7904-18.816 12.8256-13.6704-19.6608 22.2208-11.9552zM377.7024 621.184l-18.816 11.9552 14.5408 18.816 16.2304-11.9808-11.9552-18.7904z" fill="#B3889D" p-id="6906"></path><path d="M220.3648 682.7776l115.1488-0.7424 38.7584 9.728 39.296-10.2144 81.7664-0.512 2.8672 53.8368-87.296-4.8128-29.184-5.76-45.9264 1.6384-117.0688-6.4512 1.6384-36.7104z" fill="#594165" p-id="6907"></path><path d="M413.568 681.5488l-78.0544 0.4864 0.2816 43.904 75.1104 4.1216 2.56-48.512z m-19.6352 32.8192h-41.8816l0.8704-17.1008 41.856-1.7152z" fill="#B3889D" p-id="6908"></path><path d="M372.4288 500.992l110.5408-52.4544-56.2176-9.344-54.3232 61.7984z" opacity=".1" p-id="6909"></path><path d="M253.44 290.3808l28.1344-7.552 45.568 34.5344-28.9536 27.264-74.24 7.296L253.44 290.3808z" fill="#594165" p-id="6910"></path><path d="M607.104 185.7792l-14.0544 66.8928-63.872 204.7488-102.4256-18.2272-54.3232 61.7984-62.336-102.272 26.9568-110.8992 18.0992-7.6032 10.3936-52.4544-3.8144-79.0272 88.704-44.8256 83.9424 48.5376 17.4848-45.2608 55.2448 78.592z" fill="#DFBDA5" p-id="6911"></path><path d="M364.9536 150.016l51.0976 97.4848-11.8528 195.968-31.7696 57.5232-81.8688-86.5536 7.6288-69.8112 6.8352-15.0272-0.0768-15.0016-29.3888-3.9424 0.4608-68.7872 44.4928-0.1792 16.5376 39.7056 14.2336 1.3824 11.6992-54.3744 1.9712-78.3872z" fill="#C3987B" p-id="6912"></path><path d="M565.9392 274.4832l-149.888-26.9824 39.5008 41.1392 20.5824 69.1456 89.8048-83.3024z" fill="#C3987B" p-id="6913"></path><path d="M407.4496 389.76l73.5488 24.704 52.736-5.6576-49.5104-25.8304-76.7744 6.784z" fill="#8B6651" p-id="6914"></path><path d="M407.4496 389.76l68.6848-31.9744 30.4384 5.76 27.1616 45.2608-126.2848-19.0464z" fill="#785D88" p-id="6915"></path><path d="M498.2016 262.2976l-22.0672 95.488 30.4384 5.76 15.6416-96.9216-24.0128-4.3264z" fill="#E8CAB6" p-id="6916"></path><path d="M416.0512 247.5008l149.888 26.9824 4.7872-19.4048-144.6656-17.4592-10.0096 9.8816z" fill="#785D88" p-id="6917"></path><path d="M506.5984 363.392l-18.048 9.216-12.416-14.8224 30.464 5.6064z" fill="#594165" p-id="6918"></path><path d="M288.0512 256.4096l22.4256 0.64 5.4784 44.3392-27.904-44.9792zM426.752 439.1936l-72.1408-12.9024 17.8176 74.7008 54.3232-61.7984zM304.9472 314.5984l19.3536 2.7648-26.112 27.264 6.7584-30.0288z" fill="#8B6651" p-id="6919"></path><path d="M601.9584 185.1392L619.52 156.5952l37.12-24.5504-63.5904 120.6272 8.9088-67.5328z" fill="#A688BA" p-id="6920"></path><path d="M364.9536 150.016l-51.9168-30.4384-84.608-25.984 15.9232 125.184 72.0896 10.4704 59.392-0.8448-10.88-78.3872z" fill="#9075A0" p-id="6921"></path><path d="M601.9584 185.1392l-49.8176-61.2608-29.8496-28.0832-30.5664-46.208 164.9152 82.4576-54.6816 53.0944zM364.9536 150.016l90.5984-32.64-52.1728-44.2368-67.968-26.496-106.9824 46.9504 136.5248 56.4224z" fill="#785D88" p-id="6922"></path><path d="M491.7248 49.5872L392.5504 0l-57.1392 46.6432 120.1408 70.7328 85.248 49.2032 11.3408-42.7008-60.416-74.2912z" fill="#9075A0" p-id="6923"></path><path d="M375.8336 228.4032l-131.4816-9.6256L253.44 290.3808l22.1184 20.2752 3.3536-65.8944 41.6 2.7392 10.7008 44.1856 25.216-3.7632 19.4048-59.52z" fill="#785D88" p-id="6924"></path><path d="M538.8032 307.456m-11.7504 0a11.7504 11.7504 0 1 0 23.5008 0 11.7504 11.7504 0 1 0-23.5008 0Z" fill="#2B2B2B" p-id="6925"></path><path d="M456.0384 291.5584m-11.7504 0a11.7504 11.7504 0 1 0 23.5008 0 11.7504 11.7504 0 1 0-23.5008 0Z" fill="#2B2B2B" p-id="6926"></path><path d="M501.4784 516.352l17.536 19.3024 16.768 2.2528 17.4592-55.2448-51.4816 7.7824-0.2816 25.9072z" fill="#8B6651" p-id="6927"></path><path d="M595.7376 478.7968l-31.0528 61.5424-45.6704-4.6848 34.2272-52.992 11.4432-12.5696 31.0528 8.704z" fill="#C3987B" p-id="6928"></path><path d="M495.3344 451.4048l41.9328-19.9168 58.4704 47.3088-42.496 3.8656-35.6864-7.7824-22.2208-23.4752z" fill="#E8CAB6" p-id="6929"></path><path d="M553.2416 482.6624l-34.2272 18.9184-37.0688-23.9616 13.3888-26.2144 57.9072 31.2576z" fill="#DFBDA5" p-id="6930"></path></svg>